# xmcd
#
# Track frame offsets:
# 150
# 15127
# 29135
# 41742
# 57037
# 69725
# 81190
# 99995
# 115847
# 124797
# 135025
# 144750
# 158275
# 170302
# 186280
# 198685
# 209557
# 222042
# 232217
# 245767
#
# Disc length: 3503 seconds
#
#
# Revision: 0
# Processed by: cddbd v1.4PL0 Copyright (c) Steve Scherf et al.
# Submitted via: FreeRIP 2.00 
#
DISCID=130dad14
DTITLE=Various Artist - Classic Country - Old Flames
DYEAR=1994
DGENRE=Country
TTITLE0=Lord, Mr Ford
TTITLE1=Cowboys and Daddies
TTITLE2=Giving up Easy
TTITLE3=Old Flames (Can't hold a candle to you)
TTITLE4=True Life Country Music
TTITLE5=She's a little bit Country
TTITLE6=Why Lady Why
TTITLE7=Bigger they are, Harder they fall
TTITLE8=Honky Tonk Blues
TTITLE9=When you're hot, you're hot
TTITLE10=You're the one that taught me to swing
TTITLE11=A legend in my time
TTITLE12=You ought to hear me cry
TTITLE13=It's not supposed to be that way
TTITLE14=Queen of the Silver Dollar
TTITLE15=Guitar Man
TTITLE16=Early morning rain
TTITLE17=I'm your country girl
TTITLE18=Good-hearted woman
TTITLE19=Ride the train
EXTD=
EXTT0=Jerry Reed
EXTT1=Bobby Bare
EXTT2=Leon Everette
EXTT3=Dolly Parton
EXTT4=Razzy Bailey
EXTT5=George Hamilton IV
EXTT6=Alabama
EXTT7=Dottie West
EXTT8=Charley Pride
EXTT9=Jerry Reed
EXTT10=Dolly Parton
EXTT11=Ronnie Milsap
EXTT12=Willie Nelson
EXTT13=Leon Everette
EXTT14=Dave and Sugar
EXTT15=Jerry Reed
EXTT16=George Hamilton IV
EXTT17=Dottie West
EXTT18=Willie Nelson
EXTT19=Alabama
PLAYORDER=
